<svg xmlns="http://www.w3.org/2000/svg" xmlns:xlink="http://www.w3.org/1999/xlink" version="1.1" x="0px" y="0px" viewBox="0 0 100 125" enable-background="new 0 0 100 100" xml:space="preserve"><g id="taco"><path d="M62.8,51.7c-0.1-1.3-0.7-2.2-1.7-2.6c0.3-0.2,0.6-0.6,0.7-1c0.1-0.4,0-0.8-0.3-1.2l-3.2-4.3c-0.2-0.3-0.6-0.6-1-0.6   c-0.4,0-0.8,0.1-1.1,0.3l-2.8,2.4l-0.9-1.6l2.4-2c0.4-0.3,0.6-0.8,0.5-1.3s-0.4-0.9-0.8-1.2l-4.7-2.4c-0.7-0.3-1.4-0.1-1.9,0.5   l-0.7,1c-1.5-2.8-3.3-5-5.5-5.2c-3.9-0.2-5.5,0.7-6.7,1.4c-0.6,0.3-0.9,0.5-1.3,0.5c-0.3,0-0.7-0.1-1.1-0.2   c-0.6-0.2-1.2-0.3-1.9-0.3c-4.1,0-7.9,3.6-8.1,3.8c-0.1,0.1-0.2,0.3-0.3,0.4c-3.5,0.8-6.4,2.5-8.4,5.2c-7.1,9.6-1.6,27.9-1.4,28.7   c0.1,0.3,0.3,0.6,0.5,0.8c13.9,10.3,35.2,18.1,39.6,18.1c4.1,0,13.5-2.7,13.9-2.8c0.6-0.2,1-0.6,1.1-1.2   c2.3-14.4,0.6-25.5-4.9-32.9C62.7,53.1,62.8,52.4,62.8,51.7z M62,58.7c0,0-0.1,0-0.1,0l-0.8,0.1c0,0,0-0.1,0-0.1   c0.1-0.3,0.3-0.7,0.4-1C61.6,58,61.8,58.3,62,58.7z M31.6,37.1c0.7,0.2,1.4,0.3,2,0.3c1.3,0,2.1-0.5,2.8-0.9c1-0.6,2.1-1.2,5-1   c0.5,0,1.1,0.6,1.7,1.4c-0.4,0.1-0.7,0.2-0.9,0.5l-3,3.5c-1.1,0-1.8,0.1-2.3,0.1c-2.9-2-6-3-9.2-3.3C28.9,37.1,30.4,36.7,31.6,37.1   z M65.4,74.6c-0.1-1-0.9-2.8-1.9-4.5c-0.1-0.9-0.2-1.8-0.3-2.7c0.3-0.1,0.7-0.3,0.9-0.5c0.3-0.3,0.4-0.7,0.3-1.1l-0.2-1.6   c0.9,3.2,1.3,6.8,1.3,10.8C65.4,74.7,65.4,74.7,65.4,74.6z M49.1,57.6l4.9-0.2l-0.6,2.3l-3,0.4c-0.1,0-0.2,0-0.3,0.1   C49.8,59.2,49.5,58.4,49.1,57.6z M53.9,52.2C54,52.2,54,52.2,53.9,52.2l0.1,0.1l-0.2,2.1l-5.5,0.3l-0.4-1.3L53.9,52.2L53.9,52.2z    M50.1,47.1l-0.2,0.2l-0.1,0.1l-1,1.2l-0.3,0.3l-1.1,1.3l-0.1,0.1c0,0.1-0.1,0.1-0.1,0.2c0,0,0,0,0,0l-1.5,0.3c0,0-0.1,0-0.1,0   c-0.1-0.2-0.2-0.4-0.4-0.6c0.1-0.2,0.1-0.5,0.1-0.7l0.2-0.2l0.6-0.4l0.6-0.4l0.3-0.2l0.4-0.3l0.5-0.4L49,47l0.2-0.1l0.6-0.4   l0.8-0.5l0.2,0.4L50.1,47.1z M61.1,64.5l-1.5,0.1l-7.5,0.7c0,0,0,0,0,0c-0.1,0-0.2,0-0.3,0.1L51,63l0.2,0l6.4-0.8l0.8,0   c0,0,0.1,0,0.1,0c0.2,0,0.3,0,0.5-0.1c0.1,0,0.2-0.1,0.3-0.2l1.2-0.1l0.3,0L61.1,64.5L61.1,64.5z M59.3,54.6   C59.3,54.6,59.3,54.7,59.3,54.6c-0.2,0.7-0.4,1.4-0.7,2c-0.3,0.7-0.5,1.3-0.8,2c-0.1,0.2-0.2,0.4-0.2,0.6c0,0,0,0,0,0l-0.1,0   l-0.8,0l0.5-1.9l0.6-2.2l0.8-2.9c0.1,0,0.2-0.1,0.3-0.1c0.3-0.1,0.6-0.2,0.9-0.2c0,0,0,0,0,0.1c0,0.2,0,0.6-0.1,0.9   C59.6,53.4,59.5,54,59.3,54.6z M56.6,48.3l-0.8,0.5l-0.7,0.4l-1,0.6c-0.1,0.1-0.2,0.2-0.3,0.3c0,0,0,0,0,0l-0.5-0.5L53,49.3   l-0.2-0.2l0.8-0.7l1.2-1.1l1.9-1.6l1.2,1.7L56.6,48.3z M51.1,40.3L49.1,42l-1.1,0.9L48,43L46.9,44l-0.4,0.3l-0.3,0.2L45.7,45l0,0   l-0.2,0.1c-0.1,0.1-0.1,0.1-0.2,0.2c0,0-0.1,0.1-0.1,0.2C45,45.8,45,46,44.9,46.2c0,0.2,0,0.4,0.1,0.6l-0.5,0.7l-0.4-0.6l0,0   l-1.6-2.6l0.9,0c0,0,0,0.1,0.1,0.1c0.1,0.2,0.2,0.3,0.4,0.4c0.3,0.2,0.6,0.3,1,0.3c0.1,0,0.3,0,0.4-0.1c0.1,0,0.2-0.1,0.3-0.1   l0.2,0.1l-0.1-0.1c0.2-0.1,0.3-0.2,0.4-0.4l0.2-0.2l0.3-0.5l0.1-0.1l0.9-1.2l0.2-0.3l1-1.4l0.9-1.2L51.1,40.3z M24.9,40.8   c0.5,0,1-0.1,1.6-0.1c3.5,0,6.6,1.2,9.4,3.2C49.1,53.8,53,82.9,53,83.3c0.1,0.8,0.8,1.4,1.6,1.3l7.5-0.8c0.1,0,0.3-0.1,0.4-0.1   c0.8,0,1.9-1.2,2.6-3.1c-0.1,1.6-0.3,3.2-0.6,4.9c-3.1,0.9-9.3,2.4-12.1,2.4c-3.3,0-23.8-7.3-37.4-17.2c-0.8-2.8-4.6-18,1.1-25.6   C18.2,42.5,21,41.1,24.9,40.8z"/><path d="M19,68.3L19,68.3c0.8,0,1.5-0.7,1.5-1.5c0-0.8-0.7-1.5-1.5-1.5c-0.8,0-1.5,0.7-1.5,1.5C17.6,67.7,18.2,68.3,19,68.3z"/><path d="M43.3,79.7L43.3,79.7c0.8,0,1.5-0.7,1.5-1.5c0-0.8-0.7-1.5-1.5-1.5c-0.8,0-1.5,0.7-1.5,1.5C41.9,79,42.5,79.7,43.3,79.7z"/><path d="M27.2,63.9L27.2,63.9c0.8,0,1.5-0.7,1.5-1.5c0-0.8-0.7-1.5-1.5-1.5c-0.8,0-1.5,0.7-1.5,1.5C25.7,63.3,26.4,63.9,27.2,63.9z   "/><path d="M34,72.1L34,72.1c0.8,0,1.5-0.7,1.5-1.5c0-0.8-0.7-1.5-1.5-1.5c-0.8,0-1.5,0.7-1.5,1.5C32.5,71.5,33.2,72.1,34,72.1z"/><path d="M37.9,58.9L37.9,58.9c0.8,0,1.5-0.7,1.5-1.5c0-0.8-0.7-1.5-1.5-1.5s-1.5,0.7-1.5,1.5C36.4,58.3,37.1,58.9,37.9,58.9z"/><path d="M20.4,54L20.4,54c0.8,0,1.5-0.7,1.5-1.5c0-0.8-0.7-1.5-1.5-1.5c-0.8,0-1.5,0.7-1.5,1.5C18.9,53.3,19.6,54,20.4,54z"/><path d="M29.5,49.7L29.5,49.7c0.8,0,1.5-0.7,1.5-1.5c0-0.8-0.7-1.5-1.5-1.5c-0.8,0-1.5,0.7-1.5,1.5C28.1,49.1,28.7,49.7,29.5,49.7z   "/><path d="M68.6,18.3c-0.7-0.4-1.6,0-2,0.7l-5,10.4c-0.4,0.7,0,1.6,0.7,2c0.2,0.1,0.4,0.1,0.6,0.1c0.6,0,1.1-0.3,1.4-0.8l5-10.4   C69.7,19.6,69.3,18.7,68.6,18.3z"/><path d="M55.1,27.1C55.1,27.1,55.2,27.1,55.1,27.1c0.9,0,1.5-0.7,1.5-1.5l-0.2-7.9c0-0.8-0.7-1.5-1.5-1.5c-0.8,0-1.5,0.7-1.5,1.5   l0.2,7.9C53.6,26.4,54.3,27.1,55.1,27.1z"/><path d="M87.9,44.9c-0.2-0.8-1.1-1.3-1.8-1l-8.5,2.4c-0.8,0.2-1.3,1.1-1,1.8c0.2,0.7,0.8,1.1,1.4,1.1c0.1,0,0.3,0,0.4-0.1l8.5-2.4   C87.7,46.5,88.2,45.7,87.9,44.9z"/><path d="M88.4,54.4l-7.6-0.1c0,0,0,0,0,0c-0.8,0-1.5,0.7-1.5,1.5c0,0.8,0.7,1.5,1.5,1.5l7.6,0.1c0,0,0,0,0,0c0.8,0,1.5-0.7,1.5-1.5   C89.8,55.1,89.2,54.4,88.4,54.4z"/><path d="M77.9,32.8c-0.5-0.7-1.5-0.8-2.1-0.2l-5.3,4.2c-0.6,0.5-0.8,1.5-0.2,2.1c0.3,0.4,0.7,0.6,1.2,0.6c0.3,0,0.7-0.1,0.9-0.3   l5.3-4.2C78.3,34.4,78.4,33.5,77.9,32.8z"/></g></svg>
